# xmcd
#
# Track frame offsets: 
#        150
#        12118
#        33260
#        51478
#        66146
#        95620
#        115593
#        123539
#        146371
#        163833
#        184179
#        215179
#
# Disc length: 3128 seconds
#
# Revision: 2
# Processed by: cddbd v1.5.2PL0 Copyright (c) Steve Scherf et al.
# Submitted via: ExactAudioCopy v1.3
#
DISCID=ad0c360c
DTITLE=Gemma Ray - The Exodus Suite
DYEAR=2016
DGENRE=Indie
TTITLE0=Come Caldera
TTITLE1=There Must Be More Than This
TTITLE2=The Original One
TTITLE3=We Do War
TTITLE4=Ifs and Buts
TTITLE5=We Are All Wandering
TTITLE6=Acta Non Verba
TTITLE7=Hail Animal
TTITLE8=The Switch
TTITLE9=The Machine
TTITLE10=Shimmering
TTITLE11=Caldera, Caldera!
EXTD=
EXTT0=
EXTT1=
EXTT2=
EXTT3=
EXTT4=
EXTT5=
EXTT6=
EXTT7=
EXTT8=
EXTT9=
EXTT10=
EXTT11=
PLAYORDER=
